<svg version="1.2" xmlns="http://www.w3.org/2000/svg" viewBox="0 0 40 40" width="40" height="40">
	<title>download_2</title>
	<style>
		.s0 { fill: #005082 } 
	</style>
	<path id="Layer" class="s0" d="m28.3 2.3l-3.3 8.8v8.9c0.9 0.3 1.5 1.1 1.5 2 0 0.6-0.2 1.2-0.6 1.6-0.5 0.4-1 0.6-1.6 0.6-0.6 0-1.2-0.2-1.6-0.6-0.4-0.4-0.6-1-0.6-1.6 0-1 0.6-1.8 1.6-2.1v-9l3.2-8.6h-3.6l-4.4 10.8v12.1c0.5 0.1 1 0.4 1.3 0.8 0.3 0.5 0.5 1 0.4 1.6-0.1 0.5-0.3 1-0.7 1.3-0.4 0.4-1 0.6-1.5 0.6q-0.5 0-0.9-0.2-0.4-0.1-0.7-0.4-0.3-0.4-0.5-0.8-0.1-0.4-0.1-0.8c0-0.9 0.5-1.6 1.2-2v-12.5l4.3-10.5h-4.8l-4.4 10.8v16.9c0.7 0.3 1.2 1.1 1.2 1.9 0 0.9-0.5 1.6-1.3 2-0.8 0.4-1.7 0.2-2.4-0.3-0.6-0.5-0.9-1.4-0.7-2.2 0.2-0.9 0.9-1.5 1.7-1.7v-16.9l4.3-10.5h-12.8v35.9h3.8v-29.4c-0.8-0.2-1.5-1.1-1.5-2 0-0.6 0.2-1.2 0.7-1.6 0.4-0.4 0.9-0.6 1.5-0.6 0.6 0 1.2 0.2 1.6 0.6 0.4 0.4 0.6 1 0.6 1.6q0 0.3-0.1 0.6 0 0.3-0.2 0.6-0.2 0.2-0.5 0.4-0.2 0.2-0.5 0.4v29.4h15.7v-6.6l7.3-7.4v-10c-0.9-0.3-1.6-1.1-1.6-2.1 0-0.5 0.3-1.1 0.7-1.5 0.4-0.4 1-0.7 1.6-0.7 0.6 0 1.1 0.3 1.5 0.7 0.5 0.4 0.7 1 0.7 1.5 0 1-0.7 1.8-1.5 2.1v10.6l-7.3 7.3v6.1h5.1v-2.7c-0.9-0.3-1.6-1.1-1.6-2.1 0-0.6 0.2-1.2 0.6-1.6 0.4-0.4 1-0.6 1.6-0.6 0.6 0 1.1 0.2 1.6 0.6 0.4 0.4 0.6 1 0.6 1.6 0 1-0.7 1.8-1.6 2.1v2.7h5.2v-35.9z"/>
</svg>